<svg width="132" height="132" viewBox="0 0 132 132" fill="none" xmlns="http://www.w3.org/2000/svg">
<g clip-path="url(#clip0_30_504)">
<path d="M28.1261 83.5403H23.3918V116.68H28.1261V83.5403Z" fill="#66CEDB"/>
<path d="M41.0197 114.216L66.8261 126.946C67.7374 127.401 68.805 127.28 69.6808 126.769L121.32 96.6045C122.24 96.0671 122.811 95.0516 122.811 93.9888C122.811 93.1011 122.42 92.2513 121.741 91.6785C121.061 91.1056 120.174 90.8547 119.293 91.0133L75.6341 98.6047L77.5491 100.52C79.2605 102.231 80.2027 104.506 80.2027 106.925C80.2027 111.922 76.136 115.986 71.1413 115.986C68.7174 115.986 66.445 115.044 64.7335 113.331L52.4908 101.09L55.8379 97.743L68.0806 109.983C68.8878 110.788 70.0004 111.252 71.1413 111.252C73.5274 111.252 75.4684 109.311 75.4684 106.923C75.4684 105.768 75.0187 105.024 74.202 104.208L55.5515 85.9075H32.8603V114.313H39.9616C40.3285 114.313 40.6931 114.052 41.0197 114.216Z" fill="#F8CF26"/>
<path d="M84.9369 48.5259C86.2443 48.5259 87.3041 47.4661 87.3041 46.1588C87.3041 44.8515 86.2443 43.7917 84.9369 43.7917C83.6296 43.7917 82.5698 44.8515 82.5698 46.1588C82.5698 47.4661 83.6296 48.5259 84.9369 48.5259Z" fill="white"/>
<path d="M66 34.3232C67.3073 34.3232 68.3671 33.2634 68.3671 31.9561C68.3671 30.6488 67.3073 29.589 66 29.589C64.6926 29.589 63.6328 30.6488 63.6328 31.9561C63.6328 33.2634 64.6926 34.3232 66 34.3232Z" fill="white"/>
<path d="M39.6469 46.4003L75.4685 84.144L111.29 46.4003C120.337 36.8702 120.337 21.3609 111.29 11.8309C106.946 7.25286 101.18 4.73187 95.0564 4.73187C88.9279 4.73187 83.164 7.25286 78.8203 11.8309L77.1894 13.5518C76.2922 14.4939 74.6518 14.4939 73.7547 13.5518L72.1237 11.8309C67.7801 7.25286 62.0138 4.73187 55.8877 4.73187C49.7616 4.73187 43.9976 7.25286 39.654 11.8309C30.5998 21.3609 30.5998 36.8702 39.6469 46.4003ZM68.3671 61.5451H63.6329V56.8108H68.3671V61.5451ZM77.8356 61.5451H73.1014V56.8108H77.8356V61.5451ZM87.3041 61.5451H82.5698V56.8108H87.3041V61.5451ZM92.0383 46.1588C92.0383 50.074 88.8522 53.2602 84.937 53.2602C81.0217 53.2602 77.8356 50.074 77.8356 46.1588C77.8356 42.2436 81.0217 39.0575 84.937 39.0575C88.8522 39.0575 92.0383 42.2412 92.0383 46.1588ZM85.5524 24.4452L89.0558 27.6314L65.3846 53.6697L61.8812 50.4835L85.5524 24.4452ZM66 24.8547C69.9152 24.8547 73.1014 28.0409 73.1014 31.9561C73.1014 35.8713 69.9152 39.0575 66 39.0575C62.0848 39.0575 58.8987 35.8713 58.8987 31.9561C58.8987 28.0385 62.0848 24.8547 66 24.8547Z" fill="#BC2FEE"/>
<path d="M124.79 88.045C123.036 86.5679 120.718 85.9548 118.484 86.343L71.539 94.5072L58.2051 81.5188C57.76 81.0762 57.1612 81.1732 56.5315 81.1732H32.8603C32.8603 78.8061 31.8022 78.8061 30.4932 78.8061H21.0247H4.4549V83.5403H18.6576V116.68H4.4549V121.414H21.0247H30.4932C31.8022 121.414 32.8603 119.047 32.8603 119.047H39.403L64.7099 131.354C65.8059 131.901 66.9894 132.002 68.173 132C69.5175 132 70.8644 131.56 72.0669 130.857L123.71 100.692C126.075 99.3101 127.545 96.7276 127.545 93.9888C127.545 91.6998 126.539 89.5197 124.79 88.045ZM28.1261 116.68H23.3918V83.5403H28.1261V116.68ZM121.322 96.5595L69.6832 126.683C68.8074 127.195 67.7398 127.23 66.8285 126.773L41.0221 114.216C40.6931 114.053 40.3286 114.313 39.9617 114.313H32.8603V85.9075H55.5515L74.202 104.21C75.0187 105.027 75.4685 105.943 75.4685 107.098C75.4685 109.484 73.5274 111.34 71.1414 111.34C70.0004 111.34 68.8879 110.833 68.0807 110.028L55.8379 97.7644L52.4908 101.1L64.7336 113.335C66.445 115.049 68.7198 115.989 71.1414 115.989C76.136 115.989 80.2027 111.922 80.2027 106.925C80.2027 104.506 79.2606 102.229 77.5492 100.517L75.6341 98.6023L119.293 91.0086C120.174 90.85 121.062 91.0962 121.741 91.669C122.42 92.2395 122.811 93.0775 122.811 93.9675C122.811 95.0303 122.24 96.0245 121.322 96.5595Z" fill="black"/>
<path d="M65.3889 53.6835L89.061 27.6468L85.5564 24.4605L61.8843 50.4972L65.3889 53.6835Z" fill="black"/>
<path d="M66 39.0575C69.9152 39.0575 73.1013 35.8713 73.1013 31.9561C73.1013 28.0409 69.9152 24.8547 66 24.8547C62.0848 24.8547 58.8986 28.0409 58.8986 31.9561C58.8986 35.8713 62.0848 39.0575 66 39.0575ZM66 29.589C67.3066 29.589 68.3671 30.6518 68.3671 31.9561C68.3671 33.2604 67.3066 34.3232 66 34.3232C64.6933 34.3232 63.6329 33.2604 63.6329 31.9561C63.6329 30.6518 64.6933 29.589 66 29.589Z" fill="black"/>
<path d="M77.8356 46.1588C77.8356 50.074 81.0217 53.2601 84.9369 53.2601C88.8521 53.2601 92.0383 50.074 92.0383 46.1588C92.0383 42.2436 88.8521 39.0574 84.9369 39.0574C81.0217 39.0574 77.8356 42.2412 77.8356 46.1588ZM87.304 46.1588C87.304 47.4631 86.2436 48.5259 84.9369 48.5259C83.6303 48.5259 82.5698 47.4631 82.5698 46.1588C82.5698 44.8545 83.6303 43.7917 84.9369 43.7917C86.2436 43.7917 87.304 44.8521 87.304 46.1588Z" fill="black"/>
<path d="M73.7499 89.212C74.1973 89.683 74.8175 89.9505 75.4684 89.9505C76.117 89.9505 76.7372 89.683 77.1869 89.212L114.725 49.6621C125.476 38.3331 125.476 19.9004 114.725 8.5737C109.477 3.04411 102.491 0 95.0539 0C87.6543 0 80.7045 3.01097 75.4684 8.48375C70.2323 3.01097 63.2825 0 55.8829 0C48.4454 0 41.46 3.04411 36.2121 8.5737C25.4607 19.9027 25.4607 38.3355 36.2121 49.6621L73.7499 89.212ZM39.6468 11.8309C43.9905 7.25285 49.7544 4.73187 55.8805 4.73187C62.009 4.73187 67.7729 7.25285 72.1166 11.8309L73.7475 13.5518C74.6447 14.4939 76.2851 14.4939 77.1822 13.5518L78.8131 11.8309C83.1568 7.25285 88.9207 4.73187 95.0492 4.73187C101.175 4.73187 106.939 7.25285 111.283 11.8309C120.33 21.3609 120.33 36.8702 111.283 46.4003L75.4684 84.144L39.6468 46.4003C30.5997 36.8702 30.5997 21.3609 39.6468 11.8309Z" fill="black"/>
<path d="M68.3671 56.8108H63.6328V61.5451H68.3671V56.8108Z" fill="black"/>
<path d="M77.8356 56.8108H73.1013V61.5451H77.8356V56.8108Z" fill="black"/>
<path d="M87.3041 56.8108H82.5698V61.5451H87.3041V56.8108Z" fill="black"/>
</g>
<defs>
<clipPath id="clip0_30_504">
<rect width="132" height="132" fill="white"/>
</clipPath>
</defs>
</svg>
