<svg width="22" height="22" viewBox="0 0 22 22" fill="none" xmlns="http://www.w3.org/2000/svg">
<g clip-path="url(#clip0_39_1030)">
<path d="M1 19.0333H12V21C12 21.5523 12.4477 22 13 22H21C21.5523 22 22 21.5523 22 21V14.3333C22 13.7811 21.5523 13.3333 21 13.3333H20.6667V11.6667C20.6667 9.64487 19.0218 8 17 8C14.9782 8 13.3333 9.64487 13.3333 11.6667V12.8692C11.8911 11.2855 9.84447 10.3667 7.66667 10.3667C3.43927 10.3667 0 13.8059 0 18.0333C0 18.5856 0.447733 19.0333 1 19.0333ZM15.3333 11.6667C15.3333 10.7477 16.081 10 17 10C17.919 10 18.6667 10.7477 18.6667 11.6667V13.3333H15.3333V11.6667Z" fill="#069898"/>
<path d="M3.48328 4.18333C3.48328 6.49007 5.35988 8.36667 7.66661 8.36667C9.97334 8.36667 11.8499 6.49007 11.8499 4.18333C11.8499 1.8766 9.97334 0 7.66661 0C5.35988 0 3.48328 1.8766 3.48328 4.18333Z" fill="#069898"/>
</g>
<defs>
<clipPath id="clip0_39_1030">
<rect width="22" height="22" fill="white"/>
</clipPath>
</defs>
</svg>
