<svg width="84" height="84" viewBox="0 0 84 84" fill="none" xmlns="http://www.w3.org/2000/svg">
<g clip-path="url(#clip0_39_1058)">
<path d="M7.91218 23.7486C8.63303 24.109 10.6754 25.1903 12.9067 22.6844C13.7991 21.4315 14.6916 20.1786 15.7557 18.9429C17.0087 17.5183 16.8199 15.2013 15.3953 13.9484C13.9708 12.6955 11.6537 12.8843 10.4008 14.3088C9.14793 15.7333 7.89501 17.3467 6.8309 18.9429C5.78394 20.539 6.316 22.6673 7.91218 23.7486Z" fill="#BC2FEE"/>
<path d="M42.7362 6.9628C46.1346 6.9628 49.5157 7.49486 52.7424 8.57614C54.9049 9.21118 56.4839 7.85529 57.2048 6.43074C57.7369 4.47414 56.6727 2.50038 54.8878 1.96832C50.9574 0.715409 47.027 0.0117188 42.925 0.0117188C40.9684 0.0117188 39.3551 1.43626 39.3551 3.41003C39.3551 5.38379 40.7796 6.9628 42.7362 6.9628Z" fill="#BC2FEE"/>
<path d="M74.5225 28.743C75.7754 31.7808 76.4791 34.9904 76.8395 38.1999C76.8395 38.1999 77.0455 42.1817 80.7699 41.5982C84.46 41.1176 83.9794 37.4962 83.9794 37.4962C83.619 33.5658 82.5549 29.6355 81.1303 26.0655C80.2378 24.2805 78.2812 23.3881 76.4963 24.1089C74.6941 25.0014 73.8017 26.958 74.5225 28.743Z" fill="#BC2FEE"/>
<path d="M61.6673 13.0388C64.5164 14.9954 67.0222 17.3296 69.1676 20.0071C70.7638 21.998 73.4584 21.1741 73.9905 20.5391C75.415 19.2862 75.7754 16.9692 74.5225 15.5446C72.0167 12.5067 68.9788 9.65766 65.5977 7.32347C63.9843 6.25935 61.8561 6.60261 60.7748 8.21595C59.6935 9.82929 60.054 11.9575 61.6673 13.0388Z" fill="#BC2FEE"/>
<path d="M23.1016 12.4893C25.9507 10.7043 29.1773 9.27978 32.3868 8.38729C34.3434 7.85524 35.4247 5.88147 34.8927 4.0965C34.3606 2.1399 32.3868 1.05862 30.6019 1.59068C26.6715 2.65479 22.9299 4.26813 19.5316 6.41353C17.9183 7.47765 17.3862 9.62304 18.4675 11.2364C19.1712 12.3177 20.6816 13.3818 23.1016 12.4893Z" fill="#BC2FEE"/>
<path d="M80.4094 46.0605C78.4528 45.5285 76.6678 46.7814 76.3074 48.738C75.947 50.3513 74.8485 54.1101 74.8314 54.4705C70.1115 66.7422 58.7838 75.3752 45.7741 76.7655C32.9704 78.1042 20.5099 72.3202 13.2842 61.9193L19.8921 63.3782C21.677 63.7386 23.6336 62.6573 23.9941 60.7007C24.3545 58.9158 23.2732 56.9592 21.3166 56.5987L7.39728 53.5608C6.5048 53.3892 3.72436 53.5608 3.10649 56.2383L0.068607 70.3464C-0.29182 72.1314 0.78946 74.088 2.74606 74.4484C4.92578 74.6715 6.48763 73.3843 7.03686 71.5993L8.10097 66.7593C16.0475 77.5206 30.3959 85.4843 46.495 83.7509C62.7313 82.0002 76.4962 71.0673 81.8511 55.7234C82.0228 55.2772 82.8294 51.5356 83.104 50.1797C83.6361 48.2059 82.3832 46.421 80.4094 46.0605Z" fill="#BC2FEE"/>
<path d="M28.2506 45.5286H44.7101C46.6667 45.5286 48.1084 43.9152 48.28 41.9586V17.5526C48.28 15.596 46.6667 13.9827 44.7101 13.9827C42.7535 13.9827 41.1401 15.596 41.1401 17.5526V38.3887H28.2506C26.294 38.3887 24.6807 40.002 24.6807 41.9586C24.6807 43.9152 26.2768 45.5286 28.2506 45.5286Z" fill="#BC2FEE"/>
</g>
<defs>
<clipPath id="clip0_39_1058">
<rect width="84" height="84" fill="white"/>
</clipPath>
</defs>
</svg>
