<svg width="46" height="46" viewBox="0 0 46 46" fill="none" xmlns="http://www.w3.org/2000/svg">
<g clip-path="url(#clip0_38_949)">
<path d="M43.3679 44.5697L34.4776 28.4885L36.2642 27.7754C36.9496 27.5019 37.5247 26.7107 37.5736 25.9743L37.7958 22.6255C37.833 22.0651 38.1172 21.1898 38.4165 20.7143L40.2044 17.8751C40.5973 17.2506 40.5973 16.2723 40.2043 15.6478L38.4166 12.8086C38.1172 12.3332 37.833 11.4579 37.7958 10.8974L37.5736 7.54865C37.5247 6.81223 36.9496 6.02105 36.2642 5.74755L33.146 4.50315C32.6246 4.29503 31.8806 3.75418 31.5216 3.32219L29.3757 0.740408C29.0078 0.297578 28.3337 0 27.6986 0C27.544 0 27.3959 0.0176858 27.2585 0.0527151L24.0041 0.881096C23.7448 0.947161 23.3789 0.985043 23.0001 0.985043C22.6214 0.985043 22.2554 0.947161 21.9961 0.881096L18.7416 0.0527151C18.6041 0.0176858 18.456 0 18.3014 0C17.6663 0 16.9921 0.297578 16.6242 0.740408L14.4784 3.32231C14.1192 3.75418 13.3753 4.29503 12.8539 4.50326L9.73571 5.74778C9.0503 6.02128 8.47523 6.81246 8.42628 7.54888L8.20424 10.8977C8.16704 11.4582 7.88281 12.3334 7.58352 12.8088L5.79566 15.6482C5.40258 16.2725 5.40258 17.2507 5.79566 17.8752L7.58329 20.7145C7.8827 21.19 8.16692 22.0653 8.20412 22.6257L8.42628 25.9744C8.47523 26.7108 9.0503 27.502 9.73571 27.7755L11.5222 28.4885L2.63218 44.5697C2.43512 44.926 2.41561 45.2889 2.57866 45.5653C2.74172 45.8416 3.06862 46.0001 3.47573 46.0001H13.4931C14.2472 46.0001 15.124 45.4831 15.4889 44.823L22.2504 32.5921C22.4721 32.5578 22.7324 32.5385 22.9998 32.5385C23.2674 32.5385 23.5276 32.5578 23.7493 32.5921L30.5108 44.823C30.8757 45.4831 31.7525 46.0001 32.5066 46.0001H42.5241C42.9311 46.0001 43.2582 45.8416 43.421 45.5653C43.5843 45.2889 43.5648 44.9261 43.3679 44.5697ZM23 5.79307C29.0576 5.79307 33.9684 10.7039 33.9684 16.7616C33.9684 22.8195 29.0576 27.7301 23 27.7301C16.9422 27.7301 12.0314 22.8195 12.0314 16.7616C12.0314 10.704 16.9422 5.79307 23 5.79307Z" fill="#FFCF0A"/>
</g>
<defs>
<clipPath id="clip0_38_949">
<rect width="46" height="46" fill="white"/>
</clipPath>
</defs>
</svg>
