<svg width="73" height="73" viewBox="0 0 73 73" fill="none" xmlns="http://www.w3.org/2000/svg">
<path d="M36.5 0C16.3739 0 0 16.3739 0 36.5C0 56.6261 16.3739 73 36.5 73C56.6261 73 73 56.6261 73 36.5C73 16.3739 56.6261 0 36.5 0ZM36.5 66.3636C20.033 66.3636 6.63636 52.9668 6.63636 36.5C6.63636 20.0332 20.033 6.63636 36.5 6.63636C52.967 6.63636 66.3636 20.0332 66.3636 36.5C66.3636 52.9668 52.9668 66.3636 36.5 66.3636Z" fill="white"/>
<path d="M50.186 23.5952L31.4152 42.3657L22.8123 33.7625C21.5167 32.4669 19.4156 32.4667 18.1197 33.7623C16.8239 35.0582 16.8239 37.159 18.1197 38.4549L29.0688 49.4045C29.6911 50.0267 30.535 50.3765 31.415 50.3765C31.4152 50.3765 31.415 50.3765 31.4152 50.3765C32.2952 50.3765 33.1391 50.0267 33.7614 49.4047L54.8785 28.288C56.1744 26.9921 56.1744 24.8913 54.8785 23.5954C53.5827 22.2996 51.4818 22.2993 50.186 23.5952Z" fill="white"/>
</svg>
