<svg width="92" height="84" viewBox="0 0 92 84" fill="none" xmlns="http://www.w3.org/2000/svg">
<circle cx="36" cy="42" r="36" fill="white"/>
<g clip-path="url(#clip0_484_2)">
<path d="M50 0C26.8041 0 8 18.8041 8 42C8 65.1959 26.8041 84 50 84C73.1959 84 92 65.1961 92 42C92 18.8039 73.1959 0 50 0ZM56.9999 68.9092C56.9999 70.4935 55.7155 71.778 54.1312 71.778H46.2605C44.6762 71.778 43.3918 70.4935 43.3918 68.9092V36.9741C43.3918 35.3897 44.676 34.1053 46.2605 34.1053H54.1312C55.7155 34.1053 56.9999 35.3896 56.9999 36.9741V68.9092ZM50 28.6696C46.0668 28.6696 42.8783 25.481 42.8783 21.5478C42.8783 17.6146 46.0668 14.4261 50 14.4261C53.9332 14.4261 57.1217 17.6146 57.1217 21.5478C57.1217 25.481 53.9332 28.6696 50 28.6696Z" fill="#FFCF0A"/>
</g>
<defs>
<clipPath id="clip0_484_2">
<rect width="84" height="84" fill="white" transform="translate(8)"/>
</clipPath>
</defs>
</svg>
