<svg width="64" height="79" viewBox="0 0 64 79" fill="none" xmlns="http://www.w3.org/2000/svg">
<path d="M64 46.3092C64 63.9585 49.6424 78.3126 32 78.3126C14.353 78.3126 0 63.9585 0 46.3092C0 30.7224 11.2068 17.722 25.9892 14.8978V11.3038C23.0819 11.051 20.8024 8.64344 20.8024 5.67727C20.8024 2.53913 23.3416 0 26.4774 0H38.8164C41.9488 0 44.4925 2.5426 44.4925 5.67727C44.4925 8.64229 42.2096 11.0498 39.3092 11.3038V15.1886C43.126 16.0866 46.757 17.6654 50.0105 19.8849L54.9284 14.967L58.8883 30.1407L43.7135 26.1854L47.154 22.7437C42.6528 19.8502 37.3945 18.2633 31.9954 18.2633C16.5298 18.2633 3.94373 30.8447 3.94373 46.3103C3.94373 61.7794 16.5298 74.3654 31.9954 74.3654C47.4576 74.3654 60.047 61.7806 60.047 46.3103H64V46.3092ZM24.0364 46.6069C21.3437 48.4997 19.4982 50.1375 18.5311 51.5225C17.5523 52.8994 17.0641 54.5556 17.0641 56.4876V56.4934H31.4795V52.8394H22.2243L22.237 52.8082C22.9388 51.8341 24.2349 50.7388 26.1392 49.535C28.1948 48.2193 29.5971 47.0374 30.3496 45.9895C31.0951 44.9311 31.4714 43.6027 31.4714 42.0007C31.4714 40.0467 30.8135 38.4517 29.5059 37.2191C28.174 35.9807 26.4762 35.3632 24.3941 35.3632C22.1609 35.3632 20.4065 36.0349 19.1393 37.3772C17.8686 38.7229 17.2719 40.5349 17.333 42.834H21.4084C21.3714 41.5991 21.6196 40.6296 22.1459 39.9152C22.6791 39.2007 23.42 38.8441 24.3664 38.8441C25.2482 38.8441 25.9742 39.1315 26.5062 39.7051C27.051 40.2718 27.3211 41.022 27.3211 41.958C27.3211 42.8213 27.0695 43.5981 26.5859 44.2998C26.0988 44.9923 25.2505 45.7667 24.0364 46.6069ZM41.0809 56.4946V51.8376H32.7144V50.0417V48.2458L40.5211 35.3528H42.8444H45.155V48.5332H47.5406V51.8364H45.155V56.4934H41.0809V56.4946ZM41.0809 48.5367V39.7317L35.9518 48.247L35.7833 48.5367H41.0809ZM33.2915 21.5076H31.3202V25.4675H33.2915V21.5076ZM33.2915 66.381H31.3202V70.3409H33.2915V66.381ZM56.7185 46.9105V44.938H52.7586V46.9105H56.7185ZM11.8485 46.9105V44.938H7.88862V46.9105H11.8485Z" fill="white"/>
</svg>
